<?xml version="1.0" encoding="UTF-8" standalone="no"?>
<svg
   width="1000"
   height="1200"
   viewBox="0 0 1000 1200"
   version="1.1"
   id="svg1172"
   sodipodi:docname="icons.svg"
   inkscape:version="1.2.2 (b0a8486541, 2022-12-01)"
   xml:space="preserve"
   xmlns:inkscape="http://www.inkscape.org/namespaces/inkscape"
   xmlns:sodipodi="http://sodipodi.sourceforge.net/DTD/sodipodi-0.dtd"
   xmlns="http://www.w3.org/2000/svg"
   xmlns:svg="http://www.w3.org/2000/svg"><sodipodi:namedview
     id="namedview1174"
     pagecolor="#ffffff"
     bordercolor="#000000"
     borderopacity="0.25"
     inkscape:showpageshadow="2"
     inkscape:pageopacity="0.0"
     inkscape:pagecheckerboard="0"
     inkscape:deskcolor="#d1d1d1"
     showgrid="false"
     inkscape:zoom="3.9692263"
     inkscape:cx="379.29306"
     inkscape:cy="926.12507"
     inkscape:window-width="1916"
     inkscape:window-height="1020"
     inkscape:window-x="0"
     inkscape:window-y="22"
     inkscape:window-maximized="1"
     inkscape:current-layer="svg1172" /><defs
     id="defs820"><style
       id="style818">
      .icon-stroke {
        fill: none;
        stroke: #262626;
        stroke-width: 2;
        stroke-linecap: round;
        stroke-linejoin: round;
      }
      .icon-fill {
        fill: #262626;
        stroke: none;
      }
      .label {
        fill: #999;
        stroke: none;
        font-family: Arial, sans-serif;
        font-size: 10px;
        text-anchor: middle;
      }
    </style></defs><g
     inkscape:groupmode="layer"
     id="layer1"
     inkscape:label="BG"
     sodipodi:insensitive="true"><rect
       style="fill:#ffffff;fill-opacity:1;stroke:none;stroke-width:2;stroke-linecap:round;stroke-linejoin:round;stroke-dasharray:none;stroke-dashoffset:0;stroke-opacity:1;paint-order:stroke fill markers"
       id="rect6314"
       width="999.19928"
       height="1195.2686"
       x="0.024984829"
       y="3.1340201"
       rx="2"
       ry="2" /></g><g
     transform="translate(50,50)"
     id="g828"
     inkscape:label="select"><path
       id="path1356"
       style="fill:none;stroke:#262626;stroke-width:2;stroke-linecap:round;stroke-linejoin:round;stroke-dasharray:none;stroke-opacity:1;paint-order:stroke fill markers"
       d="m 12.58,12.58 7.39,7.39 M 3,3 l 7.07,16.97 2.51,-7.39 7.39,-2.51 z" /></g><g
     transform="translate(150, 50)"
     id="g834"
     inkscape:label="pen"><path
       id="path2253"
       style="fill:none;stroke:#262626;stroke-width:2;stroke-linecap:round;stroke-linejoin:round;stroke-dasharray:none;stroke-opacity:1;paint-order:stroke fill markers"
       d="m 18.871305,9.1146578 -3.89717,-3.938352 M 8.2695152,19.690083 4.3723452,15.751731 M 17,3 a 2.8284271,2.8284271 0 1 1 4,4 L 7.5,20.5 2,22 3.5,16.5 Z" /></g><g
     transform="translate(250, 50)"
     id="g842"
     inkscape:label="highlighter"><path
       style="fill:#afafaf;fill-opacity:1;stroke:#999999;stroke-width:6;stroke-linecap:butt;stroke-linejoin:round;stroke-dasharray:none;stroke-opacity:1;paint-order:stroke fill markers"
       d="M 3.8026827,17.727617 C 26.690072,17.679627 26.690072,17.679627 26.690072,17.679627"
       id="path2359" /><path
       id="path838"
       class="icon-stroke"
       d="M 16.487057,2.8597807 9.0699669,9.6212236 18.5,19.8 25.91709,13.038557 M 9,11 3,17 v 3 h 9 l 3,-3" /></g><g
     transform="translate(350, 50)"
     id="g850"
     inkscape:label="eraser"><path
       id="path4629"
       style="stroke:#262626;stroke-width:2;stroke-dasharray:none;stroke-opacity:1;fill:none"
       d="m 3.7783837,10.209948 9.0000003,9 m 9.647306,1 H 5.0231687 m 0.755215,0 -4.3,-4.3 c -0.99999995,-1 -0.99999995,-2.5 0,-3.4 L 11.078384,2.9099485 c 1,-1 2.5,-1 3.4,0 l 5.6,5.6 c 1,1.0000001 1,2.4999995 0,3.3999995 l -8.3,8.3" /></g><g
     transform="translate(450, 50)"
     id="g856"
     inkscape:label="lasso"><path
       id="path6036"
       style="fill:none;stroke:#262626;stroke-width:1.87193;stroke-linecap:round;stroke-linejoin:round;stroke-dasharray:7.4877, 3.74385;paint-order:stroke fill markers"
       d="M 24.081543,13.391215 A 11.441234,11.441234 0 0 1 12.640309,24.832449 11.441234,11.441234 0 0 1 1.1990757,13.391215 11.441234,11.441234 0 0 1 12.640309,1.9499817 11.441234,11.441234 0 0 1 24.081543,13.391215 Z" /></g><g
     transform="translate(550, 50)"
     id="g868"
     inkscape:label="hand"><path
       id="path864"
       class="icon-stroke"
       d="m 18,11 a 2,2 0 1 1 4,0 v 3 a 8,8 0 0 1 -8,8 H 12 C 9.2,22 7.5,21.14 6.01,19.66 l -3.6,-3.6 A 2,2 0 0 1 5.24,13.24 L 7,15 m 3,-4.5 V 6 A 2,2 0 0 0 8,4 V 4 A 2,2 0 0 0 6,6 v 8 m 8,-4 V 4 A 2,2 0 0 0 12,2 v 0 a 2,2 0 0 0 -2,2 v 2 m 8,5 V 6 A 2,2 0 0 0 16,4 v 0 a 2,2 0 0 0 -2,2 v 0" /></g><g
     transform="translate(640.48819,48.221393)"
     id="g878"
     inkscape:label="sticker"><path
       id="path4880"
       style="fill:none;stroke:#262626;stroke-width:2;stroke-linejoin:round;paint-order:stroke fill markers"
       d="m 10.016234,22.973204 c -2.3711628,-8.8493 4.169851,-13.4695401 11.342938,-11.54752 m -10.087433,11.97735 c -5.9274448,0 -10.73258875,-4.80514 -10.73258775,-10.73259 -10e-7,-5.9274501 4.80514295,-10.7325901 10.73258775,-10.7325901 5.927445,0 10.732587,4.80514 10.732588,10.7325901 z" /></g><g
     transform="translate(740.48819,48.221393)"
     id="g886"
     inkscape:label="text"><path
       id="path882-3"
       style="fill:none;stroke:#262626;stroke-width:2;stroke-linecap:round;stroke-linejoin:round;stroke-dasharray:none"
       class="icon-stroke"
       d="M 9.1853501,20 H 14.81465 M 12,4 V 20 M 4,7 V 4 h 16 v 3" /></g><g
     transform="translate(840.48819,48.221393)"
     id="g896"
     inkscape:label="picture"><path
       id="polyline892"
       style="fill:none;stroke:#262626;stroke-width:2;stroke-linecap:round;stroke-linejoin:round"
       class="icon-stroke"
       d="M 21,15 16,10 5,21 M 10,8.5 A 1.5,1.5 0 0 1 8.5,10 1.5,1.5 0 0 1 7,8.5 1.5,1.5 0 0 1 8.5,7 1.5,1.5 0 0 1 10,8.5 Z M 5,3 h 14 c 1.108,0 2,0.892 2,2 v 14 c 0,1.108 -0.892,2 -2,2 H 5 C 3.892,21 3,20.108 3,19 V 5 C 3,3.892 3.892,3 5,3 Z" /></g><g
     transform="translate(940.48819,48.221393)"
     id="g912"
     inkscape:label="move"><path
       id="path908"
       class="icon-stroke"
       d="M 12,2 V 22 M 2,12 h 20 m -13,7 3,3 3,-3 m 4,-10 3,3 -3,3 M 9,5 12,2 15,5 M 5,9 2,12 5,15" /></g><g
     transform="translate(50.6276,131.20443)"
     id="g920"
     inkscape:label="palette"><path
       id="path5566"
       style="fill:none;stroke:#262626;stroke-width:2;stroke-dasharray:none;stroke-opacity:1;stroke-linecap:round;stroke-linejoin:round;paint-order:fill markers stroke;fill-opacity:1"
       inkscape:label="path5566"
       transform="translate(-50.6276,-131.20443)"
       d="m 62.62164,133.29334 c -5.5,0 -10,4.5 -10,10 0,5.5 4.5,10 10,10 0.926,0 1.648,-0.74601 1.648,-1.68801 0,-0.43699 -0.18,-0.83499 -0.437,-1.125 -0.29,-0.28899 -0.438,-0.65199 -0.438,-1.125 a 1.64,1.64 0 0 1 1.668,-1.66799 h 1.996 c 3.051,0 5.555,-2.50301 5.555,-5.554 -0.027,-4.828 -4.531,-8.84 -9.992,-8.84 z m -4.99999,10.5 a 0.5,0.5 0 0 1 -0.5,0.5 0.5,0.5 0 0 1 -0.5,-0.5 0.5,0.5 0 0 1 0.5,-0.5 0.5,0.5 0 0 1 0.5,0.5 z m 2,-5 a 0.5,0.5 0 0 1 -0.5,0.5 0.5,0.5 0 0 1 -0.5,-0.5 0.5,0.5 0 0 1 0.5,-0.5 0.5,0.5 0 0 1 0.5,0.5 z m 9,3 a 0.5,0.5 0 0 1 -0.5,0.5 0.5,0.5 0 0 1 -0.5,-0.5 0.5,0.5 0 0 1 0.5,-0.5 0.5,0.5 0 0 1 0.5,0.5 z m -4,-4 a 0.5,0.5 0 0 1 -0.5,0.5 0.5,0.5 0 0 1 -0.5,-0.5 0.5,0.5 0 0 1 0.5,-0.5 0.5,0.5 0 0 1 0.5,0.5 z" /></g><g
     transform="translate(150.6276,131.20443)"
     id="g928"
     inkscape:label="fill"><path
       id="path6056"
       style="fill:none;stroke:#262626;stroke-width:2;stroke-linecap:round;stroke-linejoin:round;paint-order:stroke fill markers"
       d="m 26.68173,19.079096 c 0,1.552881 -1.258859,2.81174 -2.81174,2.81174 -1.552881,0 -2.81174,-1.258859 -2.81174,-2.81174 0,-1.552881 2.81174,-3.751981 2.81174,-6.268108 0,2.64794 2.81174,4.715227 2.81174,6.268108 z M 22.584883,9.4512119 H 8.4521737 M 15.858351,1.7905064 23.002021,9.2731229 12.180841,19.604128 5.0371705,12.121512 15.359353,2.2669007 l -2.4874,-3.4512709 z"
       sodipodi:nodetypes="ssscsccccccccc"
       inkscape:label="path6056" /></g><g
     transform="translate(251.8626,131.63766)"
     id="g950"
     inkscape:label="settings"><path
       id="line946"
       style="fill:none;stroke:#262626;stroke-width:2;stroke-linecap:round;stroke-linejoin:round"
       class="icon-stroke"
       d="m 16.558105,16 h 6 M 8.5581055,8 H 14.558105 M 0.55810547,14 H 6.5581055 M 19.558105,12 V 3 m 0,18 v -5 m -8,-8 V 3 m 0,18 V 12 M 3.5581055,10 V 3 m 0,18 v -7" /></g><g
     transform="translate(351.8626,131.63766)"
     id="g960"
     inkscape:label="width"><path
       id="circle956"
       style="fill:#262626;stroke:none;stroke-opacity:1"
       class="icon-fill"
       d="m 25,12 a 5,5 0 0 1 -5,5 5,5 0 0 1 -5,-5 5,5 0 0 1 5,-5 5,5 0 0 1 5,5 z m -13.604687,0 a 3,3 0 0 1 -2.9999995,3 3,3 0 0 1 -3,-3 3,3 0 0 1 3,-3 3,3 0 0 1 2.9999995,3 z M 1.7906269,12 A 1.5,1.5 0 0 1 0.29062686,13.5 1.5,1.5 0 0 1 -1.2093731,12 1.5,1.5 0 0 1 0.29062686,10.5 1.5,1.5 0 0 1 1.7906269,12 Z" /></g><g
     transform="translate(451.8626,131.63766)"
     id="g968"
     inkscape:label="opacity"><path
       id="circle962"
       style="fill:none;stroke:#262626;stroke-width:2;stroke-linecap:round;stroke-linejoin:round"
       class="icon-stroke"
       d="M 22,12 C 22,17.522847 17.522847,22 12,22 6.4771525,22 2,17.522847 2,12 2,6.4771525 6.4771525,2 12,2 17.522847,2 22,6.4771525 22,12 Z M 2.5960721,10.290769 V 13.71924 M 8.934072,4.0557165 V 19.766157 M 5.7650721,5.8060672 V 18.103097 M 12.103072,2.0557165 V 21.766157"
       sodipodi:nodetypes="ssssscccccccc" /></g><g
     transform="translate(551.8626,131.63766)"
     id="g974"
     inkscape:label="stabilization"><path
       class="icon-stroke"
       d="m -1.7733713,12.188954 c 3.8643918,0 3.0327155,-5.4681155 5.9433428,-5.4681155 2.9106273,0 2.8496058,10.7571815 5.9433425,10.7571815 3.093737,0 3.120648,-5.47802 5.943343,-5.47802 2.822695,0 2.97658,5 5.943343,5"
       id="path970"
       sodipodi:nodetypes="czzzc" /></g><g
     transform="translate(651.8626,131.63766)"
     id="g988"
     inkscape:label="decimation"><path
       id="path5640"
       style="fill:none;stroke:#262626;stroke-width:2;stroke-dasharray:none;stroke-opacity:1"
       d="m -2.1424171,14.344775 c 0.6106484,-0.732778 1.21437364,-1.382478 1.81117569,-1.9491 4.66719981,-4.4311797 8.91099291,-3.7814797 12.73137941,1.9491 3.85554,5.78331 8.142314,6.391806 12.860322,1.825489 m 4.105986,-1.825476 c 0,1.338605 -1.085155,2.423759 -2.42376,2.423759 -1.338605,0 -2.423759,-1.085154 -2.423759,-2.423759 0,-1.338605 1.085154,-2.42376 2.423759,-2.42376 1.338606,0 2.42376,1.085154 2.42376,2.42376 z M 22.100921,7.4972692 c 0,1.3386055 -1.085155,2.4237594 -2.42376,2.423759 -1.338605,-1e-7 -2.423759,-1.0851539 -2.423759,-2.423759 0,-1.3386051 1.085154,-2.4237589 2.423759,-2.423759 1.338605,-4e-7 2.42376,1.0851535 2.42376,2.423759 z m -7.27703,6.8475188 c 0,1.338605 -1.085154,2.423759 -2.423759,2.423759 -1.338605,0 -2.4237599,-1.085154 -2.42376,-2.423759 -4e-7,-1.338606 1.085154,-2.42376 2.42376,-2.42376 1.338605,0 2.423759,1.085155 2.423759,2.42376 z M 8.3605328,9.4972692 c -2e-7,1.3386048 -1.0851541,2.4237588 -2.4237592,2.4237588 -1.3386051,0 -2.423759,-1.085154 -2.4237592,-2.4237588 1e-7,-1.3386052 1.085154,-2.423759 2.4237592,-2.423759 1.3386052,0 2.4237591,1.0851538 2.4237592,2.423759 z M 0.28133605,14.344788 c -1.1e-7,1.338605 -1.08515407,2.423759 -2.42375925,2.423759 -1.3386052,0 -2.4237591,-1.085154 -2.4237592,-2.423759 -4e-7,-1.338606 1.0851536,-2.42376 2.4237592,-2.42376 1.33860557,0 2.42375969,1.085154 2.42375925,2.42376 z"
       sodipodi:nodetypes="csscsssssssssssssssssssssssss" /></g><g
     transform="translate(751.8626,131.63766)"
     id="g994"
     inkscape:label="pressure"><path
       id="path5098"
       style="fill:#262626;stroke:#262626;stroke-width:1.6;stroke-linejoin:round;paint-order:stroke fill markers"
       d="m 34.426575,11.789239 c 0,3.49252 -2.83125,6.28067 -6.32377,6.28067 -0.251,0 -0.90371,0.0285 -1.14708,0 -3.1429,-0.3673 -5.90032,-6.25035 -36.1198102,-6.25035 30.2061402,0 33.1749102,-5.8145303 36.1198102,-6.3541303 0.372,-0.0682 0.75538,0 1.14708,0 3.49252,0 6.32377,2.83126 6.32377,6.3237803 z"
       sodipodi:nodetypes="ssscssss" /></g><g
     transform="translate(851.8626,131.63766)"
     id="g1006"
     inkscape:label="canvas"><path
       id="rect5626"
       style="fill:none;stroke:#262626;stroke-width:1.78785"
       d="m 5.20698,3.9390669 h 12.514951 c 0.990469,0 1.78785,0.797381 1.78785,1.7878499 V 18.241868 c 0,0.990468 -0.797381,1.787849 -1.78785,1.787849 H 5.20698 c -0.9904689,0 -1.7878499,-0.797381 -1.7878499,-1.787849 V 5.7269168 c 0,-0.9904689 0.797381,-1.7878499 1.7878499,-1.7878499 z M 3.41913,9.3026166 H 19.50978 M 8.7826798,20.029717 V 9.3026166" /></g><g
     transform="translate(951.8626,131.63766)"
     id="g1014"
     inkscape:label="trash"><path
       id="path5110"
       style="fill:none;stroke:#262626;stroke-width:2;stroke-linecap:round;stroke-linejoin:round"
       d="m 16.274624,6.0087704 v -2 c 0,-1.10457 -0.89543,-2 -2,-2 L 10,2 C 8.8954305,2 8,2.8954305 8,4 v 2 m 11,0 v 14 c 0,1.104569 -0.895431,2 -2,2 H 7 C 5.8954305,22 5,21.104569 5,20 V 6 M 3,6 h 2 16"
       sodipodi:nodetypes="csccsccsssscccc" /></g><g
     transform="translate(44.281721,278.97143)"
     id="g1020"
     inkscape:label="rectangle"><rect
       class="icon-stroke"
       x="3"
       y="3"
       width="18"
       height="18"
       rx="1"
       id="rect1016" /></g><g
     transform="translate(144.28172,278.97143)"
     id="g1026"
     inkscape:label="ellipse"><circle
       class="icon-stroke"
       cx="12"
       cy="12"
       r="10"
       id="circle1022" /></g><g
     transform="translate(244.28172,278.97143)"
     id="g1032"
     inkscape:label="triangle"><path
       class="icon-stroke"
       d="M 12,3 2,21 h 20 z"
       id="path1028" /></g><g
     transform="translate(344.28172,278.97143)"
     id="g1038"
     inkscape:label="star"><polygon
       class="icon-stroke"
       points="15.09,8.26 22,9.27 17,14.14 18.18,21.02 12,17.77 5.82,21.02 7,14.14 2,9.27 8.91,8.26 12,2 "
       id="polygon1034" /></g><g
     transform="translate(444.28172,278.97143)"
     id="g1044"
     inkscape:label="heart"><path
       class="icon-stroke"
       d="m 20.84,4.61 a 5.5,5.5 0 0 0 -7.78,0 L 12,5.67 10.94,4.61 a 5.5012908,5.5012908 0 0 0 -7.78,7.78 l 1.06,1.06 7.78,7.78 7.78,-7.78 1.06,-1.06 a 5.5,5.5 0 0 0 0,-7.78 z"
       id="path1040" /></g><g
     transform="translate(544.28172,278.97143)"
     id="g1050"
     inkscape:label="cloud"><path
       class="icon-stroke"
       d="M 18,10 H 16.74 A 8,8 0 1 0 9,20 h 9 a 5,5 0 0 0 0,-10 z"
       id="path1046" /></g><g
     transform="translate(644.28172,278.97143)"
     id="g1056"
     inkscape:label="diamond"><path
       class="icon-stroke"
       d="M 12,2 2,12 12,22 22,12 Z"
       id="path1052" /></g><g
     transform="translate(744.28172,278.97143)"
     id="g1062"
     inkscape:label="parallelogram"><path
       class="icon-stroke"
       d="M 4,19 8,5 h 12 l -4,14 z"
       id="path1058" /></g><g
     transform="translate(844.28172,278.97143)"
     id="g1068"
     inkscape:label="trapezoid"><path
       class="icon-stroke"
       d="M 0.12531097,19.056441 7.2580703,4.9435593 H 14.39083 l 7.132759,14.1128817 z"
       id="path1064"
       sodipodi:nodetypes="ccccc" /></g><g
     transform="translate(46.735905,371.57006)"
     id="g1076"
     inkscape:label="undo"><path
       id="path1072"
       class="icon-stroke"
       d="m 7,8 -4,4 4,4 M 3,12 h 9 a 4,4 0 0 1 4,4 v 0" /></g><g
     transform="translate(42.160692,425.2088)"
     id="g1084"
     inkscape:label="redo"><path
       id="path1080"
       class="icon-stroke"
       d="m 17,8 4,4 -4,4 m 4,-4 h -9 a 4,4 0 0 0 -4,4 v 0" /></g><g
     transform="translate(246.7359,371.57006)"
     id="g1092"
     inkscape:label="arrow-line-right"><path
       id="path1088"
       class="icon-stroke"
       d="m 14,6 6,6 -6,6 M 4,12 h 10" /></g><g
     transform="translate(346.7359,371.57006)"
     id="g1100"
     inkscape:label="arrow-triangle-right"><path
       id="path23213"
       style="color:#000000;fill:#262626;stroke-linecap:round;stroke-linejoin:round;-inkscape-stroke:none"
       d="M 14.000428 6.0002525 L 14.000428 11.000252 L 4.0004281 11.000252 A 1 1 0 0 0 3.0004281 12.000252 A 1 1 0 0 0 4.0004281 13.000252 L 14.000428 13.000252 L 14.000428 18.000252 L 20.000428 12.000252 L 14.000428 6.0002525 z " /></g><g
     transform="translate(246.57647,434.12383)"
     id="g1108"
     inkscape:label="arrow-line-left"><path
       id="path1104"
       class="icon-stroke"
       d="m 10,6 -6,6 6,6 M 20,12 H 10" /></g><g
     transform="translate(346.57647,434.12383)"
     id="g1116"
     inkscape:label="arrow-triangle-left"><path
       id="path23196"
       style="color:#000000;fill:#262626;stroke-linecap:round;stroke-linejoin:round;-inkscape-stroke:none"
       d="M 9.9997019 5.9992169 L 3.9997019 11.999217 L 9.9997019 17.999217 L 9.9997019 12.999217 L 19.999702 12.999217 A 1 1 0 0 0 20.999702 11.999217 A 1 1 0 0 0 19.999702 10.999217 L 9.9997019 10.999217 L 9.9997019 5.9992169 z " /></g><g
     transform="translate(47.069926,571.49847)"
     id="g1122"
     inkscape:label="line-solid"><line
       class="icon-stroke"
       x1="2"
       y1="12"
       x2="22"
       y2="12"
       id="line1118"
       style="stroke-width:4;stroke-dasharray:none" /></g><g
     transform="translate(147.06993,571.49847)"
     id="g1128"
     inkscape:label="line-dashed"><path
       id="line1124"
       style="fill:none;stroke:#262626;stroke-width:4;stroke-linecap:round;stroke-linejoin:round;stroke-dasharray:7.99996604,7.99996604;stroke-dashoffset:1.60000224"
       class="icon-stroke"
       d="M 0.65986764,12.326409 H 26.493211"
       sodipodi:nodetypes="cc" /></g><g
     transform="translate(247.06993,571.49847)"
     id="g1134"
     inkscape:label="line-dotted"><path
       id="line1130"
       style="fill:none;stroke:#262626;stroke-width:4;stroke-linecap:round;stroke-linejoin:round;stroke-dasharray:2, 6"
       class="icon-stroke"
       d="M 2,12 H 22" /></g><g
     transform="translate(347.06993,571.49847)"
     id="g1140"
     inkscape:label="line-dashdot"><line
       class="icon-stroke"
       x1="2"
       y1="12"
       x2="22"
       y2="12"
       stroke-dasharray="6 2 1 2"
       id="line1136"
       style="stroke-width:4;stroke-dasharray:16, 8, 4, 8;stroke-dashoffset:5.2" /></g><g
     transform="translate(503.06993,571.49847)"
     id="g1146"
     inkscape:label="cap-round"><line
       class="icon-stroke"
       x1="6"
       y1="12"
       x2="18"
       y2="12"
       stroke-width="4"
       stroke-linecap="round"
       id="line1142"
       style="stroke-width:16;stroke-dasharray:none" /></g><g
     transform="matrix(1.4097196,0,0,1,574.66463,569.18003)"
     id="g1152"
     inkscape:label="cap-butt"><path
       id="line1148"
       style="display:inline;fill:none;stroke:#262626;stroke-width:16;stroke-linecap:butt;stroke-linejoin:round"
       class="icon-stroke"
       d="M 2.97019,12 H 22.329836"
       sodipodi:nodetypes="cc" /></g><g
     transform="translate(651.14973,370.72864)"
     id="g1158"
     inkscape:label="arrow-bar-end"><path
       id="path1094-3-1"
       style="color:#000000;fill:#262626;stroke-linecap:round;stroke-linejoin:round;-inkscape-stroke:none"
       d="M 10.055348 5.92761 L 10.055348 10.835813 L 0.055348125 10.835813 A 1 1 0 0 0 -0.94465187 11.835813 A 1 1 0 0 0 0.055348125 12.835813 L 10.055348 12.835813 L 10.055348 17.744016 L 13.996754 17.744016 L 13.996754 5.92761 L 10.055348 5.92761 z " /></g><g
     transform="translate(451.39876,369.72229)"
     id="g1164"
     inkscape:label="arrow-square-end"><path
       id="path1094-3"
       style="color:#000000;fill:#262626;stroke-linecap:round;stroke-linejoin:round;-inkscape-stroke:none"
       d="M 6.8297556 6.8050538 L 6.8297556 11.713257 L -3.1702444 11.713257 A 1 1 0 0 0 -4.1702444 12.713257 A 1 1 0 0 0 -3.1702444 13.713257 L 6.8297556 13.713257 L 6.8297556 18.62146 L 17.868818 18.62146 L 17.868818 6.8050538 L 6.8297556 6.8050538 z " /></g><g
     transform="translate(551.71956,369.72229)"
     id="g1170"
     inkscape:label="arrow-circle-end"><path
       id="path21326"
       style="color:#000000;fill:#262626;stroke-linecap:round;stroke-linejoin:round;-inkscape-stroke:none"
       d="M 13.960127 3.2601319 C 11.951544 3.286783 9.961105 4.0500396 8.3175494 5.5198975 C 6.9336988 6.7574971 6.1544229 8.530735 5.9503619 10.387085 L -2.4051069 10.387085 A 1 1 0 0 0 -3.4051069 11.387085 A 1 1 0 0 0 -2.4051069 12.387085 L 5.9503619 12.387085 C 6.1592329 14.278623 6.9564236 16.088954 8.3175494 17.338257 C 11.492838 20.252681 16.168184 20.191979 19.708174 17.236694 C 23.248165 14.281409 23.13512 8.3681055 19.708174 5.418335 C 17.994702 3.9434498 15.968711 3.2334808 13.960127 3.2601319 z " /></g><g
     transform="translate(449.71279,437.30616)"
     id="g5497"
     inkscape:label="arrow-square-start"><path
       id="path23047"
       d="M 9.841902,2.2118122 H -1.1966329 V 14.029629 H 9.841902 Z m -1.051e-4,4.9092815 a 1,1 0 0 0 -1,1.0000001 1,1 0 0 0 1,1 H 19.841797 a 1,1 0 0 0 1,-1 1,1 0 0 0 -1,-1.0000001 z"
       style="fill:#262626;fill-opacity:1" /></g><g
     transform="translate(550.03359,437.30616)"
     id="g5505"
     inkscape:label="arrow-circle-start"><path
       id="path1096-6-56-9"
       d="m 9.9491542,6.6610969 c -3.2871198,-2.93972 -7.9644298,-3.05135 -11.3913698,-0.10158 -3.42695,2.94978 -3.54,8.8625301 0,11.8178201 3.53999,2.95529 8.21608,3.01601 11.3913698,0.10158 3.1752898,-2.91443 3.2871098,-8.8781001 0,-11.8178201 z m 0.7227208,4.8682001 a 1,1 0 0 0 -1,1 1,1 0 0 0 1,1 h 10 a 1,1 0 0 0 1,-1 1,1 0 0 0 -1,-1 z"
       style="fill:#262626;fill-opacity:1" /></g><g
     transform="translate(649.46376,438.31251)"
     id="g5535"
     inkscape:label="arrow-bar-start"><path
       id="path23041"
       style="stroke-width:0.597558;stroke:none;stroke-opacity:1;fill:#262626;fill-opacity:1"
       d="m 14.224959,6.7537129 h -3.94158 V 18.571523 h 3.94158 z m -3.5e-4,4.9083961 a 1,1 0 0 0 -1,1 1,1 0 0 0 1,1 h 10 a 1,1 0 0 0 1,-1 1,1 0 0 0 -1,-1 z" /></g><g
     transform="translate(934.63746,278.97143)"
     id="g5981"
     inkscape:label="oval"><path
       id="circle5977"
       class="icon-stroke"
       style="fill:none;stroke:#262626;stroke-width:2;stroke-linecap:round;stroke-linejoin:round"
       d="m 24,12 c 0,5.38281 -4.252986,9.772282 -9.581961,9.99142 -0.138636,0.0057 -6.278002,0 -6.418039,0 C 2.4771525,21.99142 -2,17.522847 -2,12 -2,6.4771525 2.4771525,2.0045272 8,2.0045272 c 0.101635,0 6.202915,-0.00301 6.30382,0 C 19.686113,2.1651364 24,6.5787871 24,12 Z"
       sodipodi:nodetypes="sssssss" /></g><g
     transform="translate(48.454113,685.18306)"
     id="g7061"
     style="stroke-width:2;stroke-dasharray:none"
     inkscape:label="cut"><path
       id="path7057"
       style="fill:none;stroke:#262626;stroke-width:2;stroke-linecap:round;stroke-linejoin:round;stroke-dasharray:none"
       class="icon-stroke"
       d="M 8.12,8.12 12,12 M 14.47,14.48 20,20 M 20,4 8.12,15.88 M 9,18 A 3,3 0 0 1 6,21 3,3 0 0 1 3,18 3,3 0 0 1 6,15 3,3 0 0 1 9,18 Z M 9,6 A 3,3 0 0 1 6,9 3,3 0 0 1 3,6 3,3 0 0 1 6,3 3,3 0 0 1 9,6 Z" /></g><g
     transform="translate(148.45411,685.18306)"
     id="g7069"
     style="stroke-width:2;stroke-dasharray:none"
     inkscape:label="copy"><path
       id="path7065"
       style="fill:none;stroke:#262626;stroke-width:2;stroke-linecap:round;stroke-linejoin:round;stroke-dasharray:none"
       class="icon-stroke"
       d="M 5,15 H 4 A 2,2 0 0 1 2,13 V 4 A 2,2 0 0 1 4,2 h 9 a 2,2 0 0 1 2,2 v 1 m -5,3 h 9 c 1.108,0 2,0.892 2,2 v 9 c 0,1.108 -0.892,2 -2,2 H 10 C 8.892,21 8,20.108 8,19 V 10 C 8,8.892 8.892,8 10,8 Z" /></g><g
     transform="translate(248.45411,685.18306)"
     id="g7077"
     style="stroke-width:2;stroke-dasharray:none"
     inkscape:label="paste"><path
       id="rect7073"
       style="fill:none;stroke:#262626;stroke-linecap:round;stroke-linejoin:round"
       class="icon-stroke"
       d="m 9,2 h 6 c 0.554,0 1,0.446 1,1 v 2 c 0,0.554 -0.446,1 -1,1 H 9 C 8.446,6 8,5.554 8,5 V 3 C 8,2.446 8.446,2 9,2 Z m 7,2 h 2 a 2,2 0 0 1 2,2 v 14 a 2,2 0 0 1 -2,2 H 6 A 2,2 0 0 1 4,20 V 6 A 2,2 0 0 1 6,4 h 2" /></g><g
     transform="translate(348.45411,685.18306)"
     id="g7089"
     style="stroke-width:2;stroke-dasharray:none"
     inkscape:label="duplicate"><path
       id="path7085"
       style="fill:none;stroke:#262626;stroke-width:2;stroke-linecap:round;stroke-linejoin:round;stroke-dasharray:none"
       class="icon-stroke"
       d="m 11.5,14.5 h 6 m -3,-3 v 6 M 5,15 H 4 A 2,2 0 0 1 2,13 V 4 A 2,2 0 0 1 4,2 h 9 a 2,2 0 0 1 2,2 v 1 m -5,3 h 9 c 1.108,0 2,0.892 2,2 v 9 c 0,1.108 -0.892,2 -2,2 H 10 C 8.892,21 8,20.108 8,19 V 10 C 8,8.892 8.892,8 10,8 Z" /></g><g
     transform="translate(448.05205,683.63827)"
     id="g7099"
     style="stroke-width:2;stroke-dasharray:none"
     inkscape:label="flip-h"><path
       id="path7095"
       style="fill:none;stroke:#262626;stroke-width:2;stroke-linecap:round;stroke-linejoin:round;stroke-dasharray:none"
       class="icon-stroke"
       d="M 21,17 15,12 21,7 M 3,17 9,12 3,7 m 9,-4 v 18" /></g><g
     transform="translate(548.05205,683.63827)"
     id="g7109"
     style="stroke-width:2;stroke-dasharray:none"
     inkscape:label="flip-v"><path
       id="path7105"
       style="fill:none;stroke:#262626;stroke-width:2;stroke-linecap:round;stroke-linejoin:round;stroke-dasharray:none"
       class="icon-stroke"
       d="m 7,21 5,-6 5,6 M 7,3 12,9 17,3 M 3,12 h 18" /></g><g
     transform="translate(51.304469,752.48491)"
     id="g7119"
     style="stroke-width:2;stroke-dasharray:none"
     inkscape:label="bring-front"><path
       id="path7115"
       style="fill:none;stroke:#262626;stroke-width:2;stroke-linecap:round;stroke-linejoin:round;stroke-dasharray:none"
       class="icon-stroke"
       d="m 16,19 v -6 m 0,0 -3,3 m 3,-3 3,3 m -8,-6 h 10 c 0.554,0 1,0.446 1,1 v 10 c 0,0.554 -0.446,1 -1,1 H 11 c -0.554,0 -1,-0.446 -1,-1 V 11 c 0,-0.554 0.446,-1 1,-1 z M 9.7366042,14 3,14 C 2.446,14 2,13.554 2,13 V 3 C 2,2.446 2.446,2 3,2 h 10 c 0.554,0 1,0.446 1,1 l 0,6.7947675"
       sodipodi:nodetypes="ccccccssssssssscssssssc" /></g><g
     transform="translate(151.30447,752.48491)"
     id="g7129"
     style="stroke-width:2;stroke-dasharray:none"
     inkscape:label="bring-forward"><path
       id="path7125"
       style="fill:none;stroke:#262626;stroke-width:2;stroke-linecap:round;stroke-linejoin:round;stroke-dasharray:none"
       class="icon-stroke"
       d="M 14,15 V 9 m 0,0 -2,2 m 2,-2 2,2 M 9,6 h 10 c 0.554,0 1,0.446 1,1 v 10 c 0,0.554 -0.446,1 -1,1 H 9 C 8.446,18 8,17.554 8,17 V 7 C 8,6.446 8.446,6 9,6 Z M 14,18.233636 14,21 c 0,0.554 -0.446,1 -1,1 H 3 C 2.446,22 2,21.554 2,21 V 11 c 0,-0.554 0.446,-1 1,-1 l 4.770666,0"
       sodipodi:nodetypes="ccccccssssssssscssssssc" /></g><g
     transform="translate(251.30447,752.48491)"
     id="g7139"
     style="stroke-width:2;stroke-dasharray:none"
     inkscape:label="send-backward"><path
       id="path7135"
       style="fill:none;stroke:#262626;stroke-width:2;stroke-linecap:round;stroke-linejoin:round;stroke-dasharray:none"
       class="icon-stroke"
       d="m 10,9 v 6 m 0,0 -2,-2 m 2,2 2,-2 M 5,6 h 10 c 0.554,0 1,0.446 1,1 v 10 c 0,0.554 -0.446,1 -1,1 H 5 C 4.446,18 4,17.554 4,17 V 7 C 4,6.446 4.446,6 5,6 Z M 10,5.7043405 10,3 c 0,-0.554 0.446,-1 1,-1 h 10 c 0.554,0 1,0.446 1,1 v 10 c 0,0.554 -0.446,1 -1,1 l -4.811353,0"
       sodipodi:nodetypes="ccccccssssssssscssssssc" /></g><g
     transform="translate(351.30447,752.48491)"
     id="g7149"
     style="stroke-width:2;stroke-dasharray:none"
     inkscape:label="send-back"><path
       id="path7145"
       style="fill:none;stroke:#262626;stroke-width:2;stroke-linecap:round;stroke-linejoin:round;stroke-dasharray:none"
       class="icon-stroke"
       d="m 8,13 v 6 m 0,0 -3,-3 m 3,3 3,-3 M 3,10 h 10 c 0.554,0 1,0.446 1,1 v 10 c 0,0.554 -0.446,1 -1,1 H 3 C 2.446,22 2,21.554 2,21 V 11 C 2,10.446 2.446,10 3,10 Z M 10,9.6100469 10,3 c 0,-0.554 0.446,-1 1,-1 h 10 c 0.554,0 1,0.446 1,1 v 10 c 0,0.554 -0.446,1 -1,1 l -6.584248,0"
       sodipodi:nodetypes="ccccccssssssssscssssssc" /></g><g
     transform="translate(451.07242,757.1128)"
     id="g7159"
     style="stroke-width:2;stroke-dasharray:none"
     inkscape:label="group"><path
       id="rect7155"
       style="fill:none;stroke:#262626;stroke-linecap:round;stroke-linejoin:round"
       class="icon-stroke dashed"
       d="m 4,2 h 16 c 1.108,0 2,0.892 2,2 v 16 c 0,1.108 -0.892,2 -2,2 H 4 C 2.892,22 2,21.108 2,20 V 4 C 2,2.892 2.892,2 4,2 Z m 8.599464,3.8024101 h 4.798394 c 0.443051,0 0.799732,0.3566806 0.799732,0.7997322 v 4.7983937 c 0,0.443051 -0.356681,0.799732 -0.799732,0.799732 h -4.798394 c -0.443051,0 -0.799732,-0.356681 -0.799732,-0.799732 V 6.6021423 c 0,-0.4430516 0.356681,-0.7997322 0.799732,-0.7997322 z m -0.397621,9.1883759 a 3.1926288,3.1926288 0 0 1 -3.192629,3.192629 3.1926288,3.1926288 0 0 1 -3.1926289,-3.192629 3.1926288,3.1926288 0 0 1 3.1926289,-3.192629 3.1926288,3.1926288 0 0 1 3.192629,3.192629 z" /></g><g
     transform="translate(551.07242,757.1128)"
     id="g7177"
     style="stroke-width:2;stroke-dasharray:none"
     inkscape:label="ungroup"><path
       id="path7173"
       style="fill:none;stroke:#262626;stroke-width:2;stroke-linecap:round;stroke-linejoin:round;stroke-dasharray:none"
       class="icon-stroke"
       d="m 2,19 v 3 H 5 M 19,2 h 3 V 5 M 5,2 H 2 v 3 m 20,14 -3,3 m 0,-3 3,3 M 12.368508,6.8417144 h 4.105524 c 0.379076,0 0.684254,0.3051773 0.684254,0.684254 v 4.1055236 c 0,0.379077 -0.305178,0.684254 -0.684254,0.684254 h -4.105524 c -0.379077,0 -0.684254,-0.305177 -0.684254,-0.684254 V 7.5259684 c 0,-0.3790767 0.305177,-0.684254 0.684254,-0.684254 z m -0.135109,7.9912896 a 3.0664034,3.0664034 0 0 1 -3.066403,3.066403 3.0664034,3.0664034 0 0 1 -3.0664034,-3.066403 3.0664034,3.0664034 0 0 1 3.0664034,-3.066403 3.0664034,3.0664034 0 0 1 3.066403,3.066403 z" /></g><g
     transform="translate(716.15673,571.04145)"
     id="g850-7"
     inkscape:label="eraser-object"><path
       id="path13714"
       style="color:#000000;fill:#262626;-inkscape-stroke:none"
       d="M 12.815926 1.1597219 C 11.931319 1.1597219 11.047757 1.5255463 10.370614 2.2026906 L 0.80811375 11.765191 C -0.60265016 13.034878 -0.58263818 15.26311 0.77100437 16.616753 L 5.3647544 21.210503 L 12.192879 21.210503 L 21.942879 21.210503 L 21.940926 19.243706 L 14.159676 19.243706 L 20.784676 12.616753 L 20.745614 12.651909 C 22.156377 11.382222 22.138321 9.1559426 20.784676 7.8023 L 15.220223 2.2398 C 14.585667 1.534682 13.700534 1.159722 12.815926 1.1597219 z M 11.827645 6.9214406 A 3.4782484 3.4782484 0 0 1 15.304207 10.399956 A 3.4782484 3.4782484 0 0 1 11.827645 13.878472 A 3.4782484 3.4782484 0 0 1 8.3491294 10.399956 A 3.4782484 3.4782484 0 0 1 11.827645 6.9214406 z " /></g><g
     transform="translate(811.0995,571.04145)"
     id="g12001"
     inkscape:label="eraser-partial"><path
       id="path13714-6"
       style="color:#000000;fill:#262626;-inkscape-stroke:none"
       d="M 13.660266 0.56206562 C 12.77566 0.56206562 11.892095 0.92789068 11.214953 1.6050344 L 1.6524531 11.167534 C 0.24168997 12.437221 0.26170249 14.665455 1.6153437 16.019097 L 6.2090937 20.612847 L 13.037219 20.612847 L 14.535266 20.612847 L 18.500109 16.64605 L 17.004016 16.64605 L 21.629016 12.019097 L 21.589953 12.054253 C 23.000716 10.784566 22.982658 8.5582851 21.629016 7.2046437 L 16.064562 1.6421437 C 15.430007 0.9370265 14.544873 0.56206572 13.660266 0.56206562 z M 20.277453 16.64605 L 16.291125 20.612847 L 20.574328 20.612847 L 24.541125 16.64605 L 20.277453 16.64605 z M 26.316516 16.64605 L 22.328234 20.612847 L 26.787219 20.612847 L 30.785266 16.64605 L 26.316516 16.64605 z " /></g><g
     transform="translate(433.24131,571.49847)"
     id="g489"
     inkscape:label="wavy"><path
       id="line485"
       style="fill:none;stroke:#262626;stroke-width:4;stroke-linecap:round;stroke-linejoin:round"
       class="icon-stroke"
       d="m -2.5854979,8 c 5.8655419,-0.1107546 3.13100156,7.93752 8.9474387,8 5.8164372,0.06248 3.5692003,-8.1711291 8.9474382,-8.0478436 5.378239,0.1232855 3.702193,7.8976166 8.947439,7.9721426"
       sodipodi:nodetypes="czzc" /></g><g
     transform="translate(52.812088,843.57172)"
     id="g2088"
     inkscape:label="pattern-plain"><path
       id="rect2174"
       style="fill:none;stroke:#262626;stroke-width:2.568;stroke-linecap:round;stroke-dashoffset:1.6;paint-order:markers stroke fill"
       d="m 22.188625,11.290727 v 12.537045 c 0,0.302957 -0.243897,0.546854 -0.546854,0.546854 H 4.3385162 c -0.3029571,0 -0.546854,-0.243897 -0.546854,-0.546854 V 3.4345278 c 0,-0.3029571 0.2438969,-0.5468539 0.546854,-0.5468539 l 8.2199268,0 z"
       sodipodi:nodetypes="csssssscc" /></g><g
     transform="translate(147.39482,843.57172)"
     id="g2181"
     inkscape:label="pattern-dots"><path
       id="path2986"
       style="fill:#262626;fill-opacity:1;stroke:none;stroke-width:4;stroke-linecap:round;stroke-linejoin:round;stroke-dashoffset:1.6;paint-order:stroke markers fill"
       d="m 23.56004,23.660516 a 2.2138731,2.2138731 0 0 1 -2.213873,2.213874 2.2138731,2.2138731 0 0 1 -2.213873,-2.213874 2.2138731,2.2138731 0 0 1 2.213873,-2.213873 2.2138731,2.2138731 0 0 1 2.213873,2.213873 z m 0,-9.886209 a 2.2138731,2.2138731 0 0 1 -2.213873,2.213874 2.2138731,2.2138731 0 0 1 -2.213873,-2.213874 2.2138731,2.2138731 0 0 1 2.213873,-2.213873 2.2138731,2.2138731 0 0 1 2.213873,2.213873 z m 0,-9.886209 A 2.2138731,2.2138731 0 0 1 21.346167,6.1019711 2.2138731,2.2138731 0 0 1 19.132294,3.888098 2.2138731,2.2138731 0 0 1 21.346167,1.6742248 2.2138731,2.2138731 0 0 1 23.56004,3.888098 Z m -8.318676,19.772418 a 2.2138731,2.2138731 0 0 1 -2.213873,2.213874 2.2138731,2.2138731 0 0 1 -2.213873,-2.213874 2.2138731,2.2138731 0 0 1 2.213873,-2.213873 2.2138731,2.2138731 0 0 1 2.213873,2.213873 z m 0,-9.886209 a 2.2138731,2.2138731 0 0 1 -2.213873,2.213874 2.2138731,2.2138731 0 0 1 -2.213873,-2.213874 2.2138731,2.2138731 0 0 1 2.213873,-2.213873 2.2138731,2.2138731 0 0 1 2.213873,2.213873 z m 0,-9.886209 A 2.2138731,2.2138731 0 0 1 13.027491,6.1019711 2.2138731,2.2138731 0 0 1 10.813618,3.888098 2.2138731,2.2138731 0 0 1 13.027491,1.6742248 2.2138731,2.2138731 0 0 1 15.241364,3.888098 Z M 6.9226872,23.660516 A 2.2138731,2.2138731 0 0 1 4.7088141,25.87439 2.2138731,2.2138731 0 0 1 2.4949409,23.660516 2.2138731,2.2138731 0 0 1 4.7088141,21.446643 2.2138731,2.2138731 0 0 1 6.9226872,23.660516 Z m 0,-9.886209 a 2.2138731,2.2138731 0 0 1 -2.2138731,2.213874 2.2138731,2.2138731 0 0 1 -2.2138732,-2.213874 2.2138731,2.2138731 0 0 1 2.2138732,-2.213873 2.2138731,2.2138731 0 0 1 2.2138731,2.213873 z m 0,-9.886209 A 2.2138731,2.2138731 0 0 1 4.7088141,6.1019711 2.2138731,2.2138731 0 0 1 2.4949409,3.888098 2.2138731,2.2138731 0 0 1 4.7088141,1.6742248 2.2138731,2.2138731 0 0 1 6.9226872,3.888098 Z" /></g><g
     transform="translate(249.74352,843.57172)"
     id="g3095"
     inkscape:label="pattern-grid"><path
       id="path3222"
       style="fill:#262626;fill-opacity:1;stroke:#262626;stroke-width:1.94688;stroke-linecap:round;stroke-linejoin:round;stroke-dasharray:none;stroke-dashoffset:1.6;stroke-opacity:1;paint-order:stroke markers fill"
       transform="translate(-249.74352,-843.57172)"
       d="m 271.5745,843.36401 v 27.75666 m -8.53655,-27.77795 v 27.38353 m -8.53656,-27.30982 v 27.86898 m -4.68229,-3.75136 h 26.58973 m -26.50684,-10.04361 h 26.52812 m -26.40965,-10.0436 h 26.76262" /></g><g
     transform="translate(349.80507,843.57172)"
     id="g3347"
     inkscape:label="pattern-lines"><path
       id="path3350"
       style="fill:#262626;fill-opacity:1;stroke:#262626;stroke-width:2;stroke-linecap:round;stroke-linejoin:round;stroke-dasharray:none;stroke-dashoffset:1.6;stroke-opacity:1;paint-order:stroke markers fill"
       d="M 0.15847,10.623357 H 26.68659 M 0.07558,23.96233 H 26.66531 M 0.15847,17.314013 H 26.68659 M 0.27694,3.87512 h 26.76262" /></g><g
     transform="translate(52.812088,924.04646)"
     id="g507"
     inkscape:label="arrow-curved"><path
       style="fill:none;stroke:#262626;stroke-width:2;stroke-linecap:round;stroke-linejoin:round;stroke-dashoffset:1.6;paint-order:stroke markers fill"
       d="m 3.310694,24.73106 c 0,-6.513346 2.3119595,-10.883517 9.02939,-10.883517 6.22655,0 9.029389,-4.1308055 9.029389,-11.174753"
       id="path572"
       sodipodi:nodetypes="csc" /></g><g
     transform="translate(148.55509,924.04646)"
     id="g1228"
     inkscape:label="arrow-elbow"><path
       style="fill:none;stroke:#262626;stroke-width:2;stroke-linecap:round;stroke-linejoin:round;stroke-dashoffset:1.6;paint-order:stroke markers fill"
       d="M 23.369218,4.6725355 H 12.849256 V 22.731315 H 1.3109485"
       id="path1226"
       sodipodi:nodetypes="cccc" /></g><g
     style="fill:none;stroke:#262626;stroke-width:2;stroke-linecap:round;stroke-linejoin:round;stroke-opacity:1"
     id="g19793"
     transform="translate(251.10236,922.31096)"
     inkscape:label="zoom-in"><path
       id="line19783"
       d="M 5,12 H 19 M 12,5 v 14"
       style="stroke:#262626;stroke-opacity:1" /></g><g
     style="fill:none;stroke:#262626;stroke-width:2;stroke-linecap:round;stroke-linejoin:round;stroke-opacity:1"
     id="g19804"
     transform="translate(350.05456,920.93832)"
     inkscape:label="zoom-out"><path
       id="line19795"
       d="M 5,12 H 19"
       style="stroke:#262626;stroke-opacity:1" /></g><g
     transform="translate(162.0436,371.57006)"
     id="g174345"
     inkscape:label="arrow"><path
       id="path174343"
       class="icon-stroke"
       d="m 14,6 6,6 -6,6 M 4,12 h 10" /></g><g
     transform="translate(723.50442,371.57006)"
     id="g174657"
     inkscape:label="arrow-trigger-end"><path
       id="path174655"
       class="icon-stroke"
       d="m 14,6 6,6 -6,6 M 4,12 h 10" /></g><g
     transform="translate(723.34499,434.12383)"
     id="g174661"
     inkscape:label="arrow-trigger-start"><path
       id="path174659"
       class="icon-stroke"
       d="m 10,6 -6,6 6,6 M 20,12 H 10" /></g><g
     transform="translate(783.09903,371.57006)"
     id="g175945"
     inkscape:label="arrow-none"><path
       id="path175943"
       class="icon-stroke"
       d="M 4,12 H 14"
       sodipodi:nodetypes="cc" /></g></svg>
