<?xml version="1.0" encoding="UTF-8" standalone="no"?>
<svg
   width="5.0270834mm"
   height="5.291667mm"
   viewBox="0 0 19 20.000001"
   version="1.1"
   id="svg1172"
   xml:space="preserve"
   xmlns="http://www.w3.org/2000/svg"
   xmlns:svg="http://www.w3.org/2000/svg"><defs
     id="defs820"><style
       id="style818">
      .icon-stroke {
        fill: none;
        stroke: #262626;
        stroke-width: 2;
        stroke-linecap: round;
        stroke-linejoin: round;
      }
      .icon-fill {
        fill: #262626;
        stroke: none;
      }
      .label {
        fill: #999;
        stroke: none;
        font-family: Arial, sans-serif;
        font-size: 10px;
        text-anchor: middle;
      }
    </style><style
       id="style818-7">
      .icon-stroke {
        fill: none;
        stroke: #262626;
        stroke-width: 2;
        stroke-linecap: round;
        stroke-linejoin: round;
      }
      .icon-fill {
        fill: #262626;
        stroke: none;
      }
      .label {
        fill: #999;
        stroke: none;
        font-family: Arial, sans-serif;
        font-size: 10px;
        text-anchor: middle;
      }
    </style></defs><g
     transform="translate(-2,-2)"
     id="g7061"
     style="stroke:#262626;stroke-width:2;stroke-dasharray:none;stroke-opacity:1"><path
       id="path7057"
       style="fill:none;stroke:#262626;stroke-width:2;stroke-linecap:round;stroke-linejoin:round;stroke-dasharray:none;stroke-opacity:1"
       class="icon-stroke"
       d="M 8.12,8.12 12,12 M 14.47,14.48 20,20 M 20,4 8.12,15.88 M 9,18 A 3,3 0 0 1 6,21 3,3 0 0 1 3,18 3,3 0 0 1 6,15 3,3 0 0 1 9,18 Z M 9,6 A 3,3 0 0 1 6,9 3,3 0 0 1 3,6 3,3 0 0 1 6,3 3,3 0 0 1 9,6 Z" /></g></svg>
