<?xml version="1.0" encoding="UTF-8" standalone="no"?>
<svg
   width="6.3500323mm"
   height="6.3346024mm"
   viewBox="0 0 24.000122 23.941804"
   version="1.1"
   id="svg1172"
   sodipodi:docname="icons.svg"
   inkscape:version="1.2.2 (b0a8486541, 2022-12-01)"
   xml:space="preserve"
   xmlns:inkscape="http://www.inkscape.org/namespaces/inkscape"
   xmlns:sodipodi="http://sodipodi.sourceforge.net/DTD/sodipodi-0.dtd"
   xmlns="http://www.w3.org/2000/svg"
   xmlns:svg="http://www.w3.org/2000/svg"><sodipodi:namedview
     id="namedview1174"
     pagecolor="#ffffff"
     bordercolor="#000000"
     borderopacity="0.25"
     inkscape:showpageshadow="2"
     inkscape:pageopacity="0.0"
     inkscape:pagecheckerboard="0"
     inkscape:deskcolor="#d1d1d1"
     showgrid="false"
     inkscape:zoom="0.70166673"
     inkscape:cx="1631.1162"
     inkscape:cy="374.82182"
     inkscape:window-width="1916"
     inkscape:window-height="1020"
     inkscape:window-x="0"
     inkscape:window-y="22"
     inkscape:window-maximized="1"
     inkscape:current-layer="svg1172"
     inkscape:document-units="mm" /><defs
     id="defs820"><style
       id="style818">
      .icon-stroke {
        fill: none;
        stroke: #262626;
        stroke-width: 2;
        stroke-linecap: round;
        stroke-linejoin: round;
      }
      .icon-fill {
        fill: #262626;
        stroke: none;
      }
      .label {
        fill: #999;
        stroke: none;
        font-family: Arial, sans-serif;
        font-size: 10px;
        text-anchor: middle;
      }
    </style><style
       id="style818-7">
      .icon-stroke {
        fill: none;
        stroke: #262626;
        stroke-width: 2;
        stroke-linecap: round;
        stroke-linejoin: round;
      }
      .icon-fill {
        fill: #262626;
        stroke: none;
      }
      .label {
        fill: #999;
        stroke: none;
        font-family: Arial, sans-serif;
        font-size: 10px;
        text-anchor: middle;
      }
    </style></defs><g
     transform="matrix(1.5289219,-1.5289219,-1.5289219,-1.5289219,523.90366,-15.82924)"
     id="g2412"
     inkscape:label="pipette"
     style="stroke:#262626;stroke-width:0.924974;stroke-dasharray:none;stroke-opacity:1"
     inkscape:export-filename="list.svg"
     inkscape:export-xdpi="96"
     inkscape:export-ydpi="96"><path
       id="path2410"
       style="fill:none;fill-opacity:1;stroke:#262626;stroke-width:0.887954;stroke-linecap:square;stroke-linejoin:round;stroke-dasharray:none;stroke-opacity:1;paint-order:fill markers stroke"
       d="m -176.0111,159.58802 0.0124,-2.48449 m 5.68848,2.22522 c -0.12407,0.12023 -0.27122,0.22133 -0.43697,0.29683 -0.21996,0.10018 -0.41392,0.11988 -1.30582,0.13275 l -1.04687,0.0151 -0.0829,0.24755 c -0.11589,0.34804 -0.43022,0.69191 -0.77681,0.84918 -0.34378,0.15598 -0.83954,0.15598 -1.18333,0 -0.3537,-0.16049 -0.66757,-0.50634 -0.7754,-0.85402 l -0.0775,-0.24955 -2.66917,-0.007 c -2.13584,-0.006 -2.71611,-0.0248 -2.90589,-0.0971 -0.18844,-0.0719 -0.32724,-0.17271 -0.67598,-0.49081 -0.4307,-0.39286 -0.38315,-0.44408 -0.58943,-0.45074 -0.47271,-0.0154 -0.70218,-0.0709 -0.73576,-0.35201 -0.0291,-0.24414 0.0884,-0.27418 0.29003,-0.36474 0.21795,0.002 0.32549,-0.12032 0.55664,-0.13223 l 0.48165,-0.46957 c 0.34936,-0.3208 0.47988,-0.41558 0.67171,-0.48768 0.18931,-0.0711 0.78576,-0.0906 2.90874,-0.0948 l 2.67031,-0.005 0.0775,-0.25297 c 0.0661,-0.21682 0.117,-0.29303 0.35751,-0.53354 0.32497,-0.32497 0.58732,-0.43755 1.01809,-0.43755 0.41634,0 0.7077,0.0531 1.03538,0.3808 0.23869,0.23869 0.25395,0.37706 0.32058,0.58887 l 0.0786,0.24954 1.01269,0.0129 c 1.22403,0.0154 1.37793,0.055 1.78267,0.45977 0.33676,0.33676 0.43998,0.58405 0.43669,1.04573 -0.003,0.37902 -0.16398,0.73597 -0.43698,1.00044 z" /></g></svg>
