<?xml version="1.0" encoding="UTF-8" standalone="no"?>
<svg
   width="22.159973"
   height="24"
   viewBox="0 0 22.159973 24"
   version="1.1"
   id="svg1172"
   sodipodi:docname="icons.svg.2025_12_29_21_08_15.1.svg"
   inkscape:version="1.2.2 (b0a8486541, 2022-12-01)"
   xml:space="preserve"
   xmlns:inkscape="http://www.inkscape.org/namespaces/inkscape"
   xmlns:sodipodi="http://sodipodi.sourceforge.net/DTD/sodipodi-0.dtd"
   xmlns="http://www.w3.org/2000/svg"
   xmlns:svg="http://www.w3.org/2000/svg"><sodipodi:namedview
     id="namedview1174"
     pagecolor="#ffffff"
     bordercolor="#000000"
     borderopacity="0.25"
     inkscape:showpageshadow="2"
     inkscape:pageopacity="0.0"
     inkscape:pagecheckerboard="0"
     inkscape:deskcolor="#d1d1d1"
     showgrid="false"
     inkscape:zoom="0.99230658"
     inkscape:cx="440.38809"
     inkscape:cy="1363.4899"
     inkscape:window-width="1916"
     inkscape:window-height="1020"
     inkscape:window-x="0"
     inkscape:window-y="22"
     inkscape:window-maximized="1"
     inkscape:current-layer="svg1172" /><defs
     id="defs820"><style
       id="style818">
      .icon-stroke {
        fill: none;
        stroke: #262626;
        stroke-width: 2;
        stroke-linecap: round;
        stroke-linejoin: round;
      }
      .icon-fill {
        fill: #262626;
        stroke: none;
      }
      .label {
        fill: #999;
        stroke: none;
        font-family: Arial, sans-serif;
        font-size: 10px;
        text-anchor: middle;
      }
    </style></defs><g
     transform="matrix(0.92849388,0,0,0.92849388,-0.33551844,1.5878611)"
     id="g5249"
     style="stroke-width:2;stroke-dasharray:none"
     inkscape:label="lock"><path
       id="path5357"
       style="fill:none;stroke:#262626;stroke-width:2;stroke-linecap:square;stroke-linejoin:round;stroke-dasharray:none;paint-order:stroke markers fill"
       d="M 6.2162792,7.1631891 V 5.4857263 c 0,-3.4218807 2.6901305,-6.1958631 6.1120108,-6.195863 3.42188,4e-7 6.044725,2.7739826 6.044725,6.195863 V 7.1631891 M 1.9922487,8.0600863 H 22.597045 c 0.349516,0 0.630894,0.2813787 0.630894,0.630894 V 22.507282 c 0,0.349515 -0.281378,0.630894 -0.630894,0.630894 H 1.9922487 c -0.3495153,0 -0.630894,-0.281379 -0.630894,-0.630894 V 8.6909803 c 0,-0.3495153 0.2813787,-0.630894 0.630894,-0.630894 z" /><path
       id="path5360"
       style="fill:#262626;stroke-width:1.93263;stroke-linecap:square;stroke-linejoin:round;paint-order:stroke markers fill"
       transform="matrix(1.077013,0,0,1.077013,-591.40576,-907.91176)"
       d="m 563.01016,857.47418 a 2.4780519,2.4780519 0 0 1 -2.47806,2.47805 2.4780519,2.4780519 0 0 1 -2.47805,-2.47805 2.4780519,2.4780519 0 0 1 2.47805,-2.47805 2.4780519,2.4780519 0 0 1 2.47806,2.47805 z" /></g></svg>
