<?xml version="1.0" encoding="UTF-8" standalone="no"?>
<svg
   width="6.3410311mm"
   height="6.3410311mm"
   viewBox="0 0 23.966102 23.966102"
   version="1.1"
   id="svg1172"
   xml:space="preserve"
   xmlns="http://www.w3.org/2000/svg"
   xmlns:svg="http://www.w3.org/2000/svg"><defs
     id="defs820"><style
       id="style818">
      .icon-stroke {
        fill: none;
        stroke: #262626;
        stroke-width: 2;
        stroke-linecap: round;
        stroke-linejoin: round;
      }
      .icon-fill {
        fill: #262626;
        stroke: none;
      }
      .label {
        fill: #999;
        stroke: none;
        font-family: Arial, sans-serif;
        font-size: 10px;
        text-anchor: middle;
      }
    </style><style
       id="style818-7">
      .icon-stroke {
        fill: none;
        stroke: #262626;
        stroke-width: 2;
        stroke-linecap: round;
        stroke-linejoin: round;
      }
      .icon-fill {
        fill: #262626;
        stroke: none;
      }
      .label {
        fill: #999;
        stroke: none;
        font-family: Arial, sans-serif;
        font-size: 10px;
        text-anchor: middle;
      }
    </style></defs><g
     transform="matrix(1.3651469,0,0,1.3651469,-378.90268,-71.8024)"
     id="g765"
     style="stroke:#262626;stroke-width:1.46504;stroke-dasharray:none;stroke-opacity:1"><path
       id="path918"
       style="fill:none;stroke-width:1.46504;stroke-linecap:round;stroke-linejoin:round;stroke-dasharray:none;paint-order:fill markers stroke"
       d="m 280.07488,53.329352 h 12.51495 c 0.99047,0 1.78785,0.797381 1.78785,1.787849 v 12.514952 c 0,0.990468 -0.79738,1.787849 -1.78785,1.787849 h -12.51495 c -0.99047,0 -1.78785,-0.797381 -1.78785,-1.787849 V 55.117201 c 0,-0.990468 0.79738,-1.787849 1.78785,-1.787849 z m 5.06558,16.09065 V 54.348973" /><path
       d="m 282.718,63.857982 c 0,0.563125 -0.45649,1.019636 -1.01963,1.019636 -0.56314,0 -1.01962,-0.456511 -1.01962,-1.019636 0,-0.563132 0.45648,-1.019638 1.01962,-1.019638 0.56314,0 1.01963,0.456506 1.01963,1.019638 z m 0,-4.966608 c 0,0.563132 -0.45649,1.019637 -1.01963,1.019637 -0.56314,0 -1.01962,-0.456505 -1.01962,-1.019637 0,-0.563132 0.45648,-1.019637 1.01962,-1.019637 0.56314,0 1.01963,0.456505 1.01963,1.019637 z"
       style="fill:#262626;fill-opacity:1;stroke-width:1.46504;stroke-linecap:round;stroke-linejoin:round;stroke-dasharray:none;paint-order:fill markers stroke"
       id="path1442" /></g></svg>
